<svg id="Calque_1" data-name="Calque 1" xmlns="http://www.w3.org/2000/svg" viewBox="0 0 49.93103 103.41699"><defs><style>.cls-1{fill:#dabc4b;}.cls-2,.cls-5{fill:#1d1d1b;}.cls-3{fill:#b2d7ed;}.cls-4{fill:#e3d87c;}.cls-5{stroke:#dabc4b;stroke-linejoin:round;}.cls-11,.cls-5,.cls-7{stroke-linecap:round;}.cls-5,.cls-6,.cls-7,.cls-8{stroke-width:0.401px;}.cls-10,.cls-13,.cls-6,.cls-7,.cls-8{fill:none;}.cls-6{stroke:#a4983e;stroke-miterlimit:10;}.cls-10,.cls-11,.cls-12,.cls-13,.cls-7,.cls-8,.cls-9{stroke:#1d1d1b;}.cls-7{stroke-miterlimit:5;}.cls-12,.cls-9{fill:#c09718;}.cls-10,.cls-11,.cls-13,.cls-9{stroke-width:0.18px;}.cls-11{fill:#9d9d9c;}.cls-12{stroke-width:0.24px;}.cls-13{stroke-miterlimit:6;}</style></defs><path class="cls-1" d="M24.96484,103.20761C.22949,96.0914.19775,75.08359.20068,74.87265L.21387.1998h49.5166v74.709a28.6196,28.6196,0,0,1-3.1294,11.46973C43.76807,92.00644,37.71484,99.49081,24.96484,103.20761Z" transform="translate(0 0)"/><path class="cls-2" d="M49.53.401V74.90769a28.44885,28.44885,0,0,1-3.11648,11.398c-2.81227,5.57785-8.81577,12.99373-21.44914,16.69384C.44448,95.91183.39867,75.08469.40112,74.87005L.41405.401H49.53M49.931,0H.01312l-.013,74.87s-.27,21.318,24.965,28.547C49.87413,96.187,49.931,74.909,49.931,74.909V0Z" transform="translate(0 0)"/><path class="cls-3" d="M24.96436,100.192C2.83838,93.74863,2.81836,74.71835,2.8208,74.527L2.833,6.95859H47.10938V74.55917C47.10889,74.7496,46.79492,93.75156,24.96436,100.192Z" transform="translate(0 0)"/><path class="cls-2" d="M46.90905,7.15937V74.55809c-.00071.18974-.32163,19.01432-21.94468,25.42542C3.06143,93.573,3.01894,74.71916,3.02111,74.52446L3.03306,7.15937h43.876m.401-.401H2.63213l-.012,67.766s-.241,19.333,22.345,25.877c22.29394-6.544,22.345-25.842,22.345-25.842V6.75837Z" transform="translate(0 0)"/><path class="cls-2" d="M11.75714,4.80008a.98328.98328,0,0,1-.006.119.32261.32261,0,0,1-.018.077.10169.10169,0,0,1-.031.042.06761.06761,0,0,1-.041.014H10.07208a.20009.20009,0,0,1-.136-.048.19708.19708,0,0,1-.055-.155v-2.759a.17927.17927,0,0,1,.191-.203h1.58a.06652.06652,0,0,1,.039.012.10438.10438,0,0,1,.029.043.34093.34093,0,0,1,.019.079.99667.99667,0,0,1,.006.121.96476.96476,0,0,1-.006.116.30986.30986,0,0,1-.019.077.11173.11173,0,0,1-.029.043.06108.06108,0,0,1-.039.013h-1.13v.773h.956a.06887.06887,0,0,1,.041.013.09877.09877,0,0,1,.03.042.29385.29385,0,0,1,.018.076,1.13777,1.13777,0,0,1,0,.233.29581.29581,0,0,1-.018.075.08594.08594,0,0,1-.03.04.06787.06787,0,0,1-.041.012h-.956v.893h1.139a.06762.06762,0,0,1,.041.014.10883.10883,0,0,1,.031.042.32273.32273,0,0,1,.018.077.98322.98322,0,0,1,.006.119m10.29657-2.656a.33214.33214,0,0,0-.016-.109.21794.21794,0,0,0-.046-.08.19989.19989,0,0,0-.078-.051.35111.35111,0,0,0-.114-.017h-.433a.58725.58725,0,0,0-.159.019.29493.29493,0,0,0-.119.062.40662.40662,0,0,0-.088.115,1.09157,1.09157,0,0,0-.07.173l-.709,1.881h-.009l-.685-1.885a.84151.84151,0,0,0-.069-.173.34515.34515,0,0,0-.098-.112.35942.35942,0,0,0-.139-.061.83409.83409,0,0,0-.193-.019h-.421a.2383.2383,0,0,0-.176.066.25911.25911,0,0,0-.066.191v2.82a.076.076,0,0,0,.013.044.09746.09746,0,0,0,.049.032.59692.59692,0,0,0,.094.02,1.46125,1.46125,0,0,0,.147.007,1.42063,1.42063,0,0,0,.14795-.007.62536.62536,0,0,0,.094-.02.08857.08857,0,0,0,.05-.032.07691.07691,0,0,0,.014-.044v-2.575h.005l.885,2.573a.09741.09741,0,0,0,.03.046.16946.16946,0,0,0,.06.033.41142.41142,0,0,0,.096.02c.039.004.087.006.142.006s.103-.001.142-.004a.383.383,0,0,0,.096-.016.14246.14246,0,0,0,.06-.033.12051.12051,0,0,0,.032-.052l.917-2.573h.005v2.575a.07126.07126,0,0,0,.01495.044.1021.1021,0,0,0,.049.032.53659.53659,0,0,0,.093.02,1.43942,1.43942,0,0,0,.146.007,1.49714,1.49714,0,0,0,.15-.007.5986.5986,0,0,0,.094-.02.09751.09751,0,0,0,.049-.032.076.076,0,0,0,.013-.044Zm8.34424-.1367a.24392.24392,0,0,0-.035-.074.13433.13433,0,0,0-.069-.04.57569.57569,0,0,0-.133-.017c-.057-.002-.13306-.004-.23-.004-.083,0-.15.002-.2.004a.46548.46548,0,0,0-.119.017.12307.12307,0,0,0-.062.039.22807.22807,0,0,0-.035.068l-.975,2.807a.77556.77556,0,0,0-.037.137.09789.09789,0,0,0,.017.08.13908.13908,0,0,0,.088.035,1.62164,1.62164,0,0,0,.176.007c.07,0,.127-.001.17-.004a.393.393,0,0,0,.1-.019.10929.10929,0,0,0,.052-.036.23865.23865,0,0,0,.026-.058l.2-.619h1.189l.212.636a.17341.17341,0,0,0,.025.051.09113.09113,0,0,0,.051.031.47846.47846,0,0,0,.107.015c.046.002.111.003.194.003.08,0,.143-.002.188-.006a.15437.15437,0,0,0,.096-.032.08157.08157,0,0,0,.019-.076.899.899,0,0,0-.036-.14Zm-.027,1.829h-.897l.447-1.345H29.924Zm9.67828.7363c0-.059-.00207-.105-.005-.141a.34978.34978,0,0,0-.015-.082.07263.07263,0,0,0-.02405-.039.075.075,0,0,0-.03894-.009.18185.18185,0,0,0-.08911.039c-.03894.026-.08789.055-.147.088a1.325,1.325,0,0,1-.214.089.96369.96369,0,0,1-.296.04.85029.85029,0,0,1-.339-.064.675.675,0,0,1-.257-.197.93907.93907,0,0,1-.16406-.337,1.80962,1.80962,0,0,1-.057-.483,1.779,1.779,0,0,1,.05408-.457,1.02251,1.02251,0,0,1,.158-.346.71508.71508,0,0,1,.25207-.22.705.705,0,0,1,.33594-.077.88585.88585,0,0,1,.29407.043,1.1219,1.1219,0,0,1,.21289.095,1.62245,1.62245,0,0,1,.146.095.16443.16443,0,0,0,.093.043.06.06,0,0,0,.03907-.015.10992.10992,0,0,0,.02893-.046.317.317,0,0,0,.01709-.083,1.15175,1.15175,0,0,0,.005-.125c0-.046-.0011-.084-.00305-.115a.71868.71868,0,0,0-.012-.081.19242.19242,0,0,0-.01905-.056.25343.25343,0,0,0-.045-.055.57146.57146,0,0,0-.116-.079,1.08972,1.08972,0,0,0-.188-.082,1.52044,1.52044,0,0,0-.226-.058,1.49288,1.49288,0,0,0-.254-.022,1.57357,1.57357,0,0,0-.59607.11,1.26578,1.26578,0,0,0-.46289.323,1.493,1.493,0,0,0-.301.526,2.19182,2.19182,0,0,0-.108.717,2.23371,2.23371,0,0,0,.098.694,1.35507,1.35507,0,0,0,.281.498,1.16264,1.16264,0,0,0,.44593.299,1.62447,1.62447,0,0,0,.587.101,1.66163,1.66163,0,0,0,.309-.027,1.75064,1.75064,0,0,0,.254-.067,1.31774,1.31774,0,0,0,.18909-.085.48713.48713,0,0,0,.10388-.072.24527.24527,0,0,0,.03906-.05.21583.21583,0,0,0,.01905-.053.44247.44247,0,0,0,.011-.073c.00293-.028.004-.063.004-.104" transform="translate(0 0)"/><path class="cls-4" d="M26.67511,71.93237c4.472,0,9.3-3.626,9.3-8.098a8.08344,8.08344,0,0,0-3.327-6.542.88155.88155,0,0,1-.36-.712v-.079a1.26756,1.26756,0,0,1,.372-.897l1.355-1.355a.11946.11946,0,0,0,0-.168l-1.81-1.81c-.521-.61,4.253-8.071,4.612-11.124.47492-.629.087-6.874,2.534-7.247-.9-1.632-2.384-2.11-4.642-1.155a29.06034,29.06034,0,0,0-1.666-7.173c-1.312-3.855,1.124-5.16.955-5.463a7.7042,7.7042,0,0,0-4.552,1.599c-.582-2.631-1.16205-5.268-2.31-6.219l-1.803,40.281.003.001Z" transform="translate(0 0)"/><polygon class="cls-5" points="26.62 25.3 21.757 15.388 17.097 25.202 19.553 30.208 14.406 27.723 6.171 31.699 14.406 35.674 20.704 32.634 11.164 63.573 17.296 59.885 21.738 71.265 27.193 60.906 27.193 32.379 26.62 25.3"/><path class="cls-6" d="M27.21435,54.28677h6.8m-6.87524,1.2847h5.521m-4.10278-3.3268s-.65-2.798,1.008-10.083c1.657-7.284.021-20.454-.119-20.454m4.5429-1.51572s-3.98.42-1.78405,8.734c2.193,8.305-.984,15.342-1.826,17.411a11.91752,11.91752,0,0,0-.614,5.908m.21393-.00029s-.026-3.929,1.184-5.819a25.33464,25.33464,0,0,0,3.546-13.68m4.64136,1.154c-1.244-1.244-2.956.734-3.198,1.245-.24194.512-.31695,6.116-1.443,7.95-4.731,7.71-4.109,9.15-4.109,9.15" transform="translate(0 0)"/><path class="cls-7" d="M26.67511,71.93237c4.472,0,9.3-3.626,9.3-8.098a8.08344,8.08344,0,0,0-3.327-6.542.88155.88155,0,0,1-.36-.712v-.079a1.26756,1.26756,0,0,1,.372-.897l1.355-1.355a.11946.11946,0,0,0,0-.168l-1.81-1.81c-.521-.61,3.884-8.075,4.612-11.124.728-3.05.087-6.874,2.534-7.247-.9-1.632-2.384-2.11-4.642-1.155a24.11341,24.11341,0,0,0-1.666-7.173,6.18709,6.18709,0,0,1,.955-5.463,6.99206,6.99206,0,0,0-4.552,1.599c-.582-2.631-1.16205-5.268-2.31-6.219l-1.803,40.281.003.001Z" transform="translate(0 0)"/><line class="cls-8" x1="27.21435" y1="52.24468" x2="32.20531" y2="52.24468"/><polygon class="cls-2" points="24.965 2.748 21.737 8.606 21.7 76.924 27.023 77.797 27.134 8.413 24.965 2.748"/><path class="cls-2" d="M21.7052,81.55748s-2.49805,7.188.948,17.049l-.578,2.792s-1.335,1.002,1.997.869c3.986.277,2.599-.869,2.599-.869l-.578-2.792c3.25805-10.158.94806-17.049.94806-17.049" transform="translate(0 0)"/><path class="cls-9" d="M22.33734,80.85608s-2.49805,7.188.948,17.049l-.578,2.792s-1.335,1.002,1.997.868c3.986.278,2.599-.868,2.599-.868l-.578-2.792c3.258-10.158.94806-17.049.94806-17.049" transform="translate(0 0)"/><path class="cls-10" d="M28.42974,86.49937l-6.99-.059M23.3305,97.905h3.441m.20087-.891-3.815.059m4.32458-2.1383-4.90906.045m5.38294-1.827h-5.746m5.983-1.6633-6.457.119m6.57556-1.78221-6.694-.059m6.8717-1.4855-6.931-.06m6.87176-3.5043-6.753.06m6.492-1.60451-6.314-.119" transform="translate(0 0)"/><polygon class="cls-11" points="27.474 9.269 27.475 9.272 27.504 77.139 27.504 77.342 22.61 77.197 22.61 76.995 22.573 9.275 24.965 2.949 27.474 9.269"/><line class="cls-10" x1="24.96514" y1="3.17008" x2="24.95013" y2="74.72309"/><polyline class="cls-9" points="28.536 81.621 41.66 79.547 41.705 77.96 28.543 76.647"/><polyline class="cls-9" points="21.387 81.621 8.263 79.547 8.218 77.96 21.38 76.647"/><polygon class="cls-9" points="21.41 81.628 21.388 76.64 28.544 76.638 28.544 81.628 21.41 81.628"/><path class="cls-12" d="M42.398,81.48747a2.90031,2.90031,0,1,1,2.6809-2.892A2.79254,2.79254,0,0,1,42.398,81.48747Z" transform="translate(0 0)"/><path class="cls-12" d="M7.52533,81.48747a2.9003,2.9003,0,0,0,0-5.784,2.9003,2.9003,0,0,0,0,5.784Z" transform="translate(0 0)"/><path class="cls-13" d="M31.35815,76.91617s.59094.95.191,4.247m1.09167-.43c.342-3.041-.081-3.387-.081-3.387m1.21362,3.1484c.325-2.64-.089-3.027-.089-3.027m1.10883,2.8388c.399-2.34.022-2.651.022-2.651m1.03254,2.45779c.316-2.078-.055-2.25-.055-2.25m.98743,2.02591a4.91975,4.91975,0,0,0,.08905-1.871" transform="translate(0 0)"/><path class="cls-13" d="M18.3861,81.16318c-.4-3.297.191-4.247.191-4.247m-1.2019.43s-.423.346-.08105,3.387m-1.04346-3.2656s-.414.387-.08905,3.027m-1.04193-2.8392s-.377.311.022,2.651m-.99939-2.44321s-.371.172-.055,2.25m-1.02137-2.09509a4.91907,4.91907,0,0,0,.089,1.871" transform="translate(0 0)"/></svg>