<svg xmlns="http://www.w3.org/2000/svg" version="1.1" xmlns:xlink="http://www.w3.org/1999/xlink" width="512" height="512" x="0" y="0" viewBox="0 0 53 53" style="enable-background:new 0 0 512 512" xml:space="preserve" class=""><g><path fill="#2d2c2c" d="M50.5 26.5c0 3.61-.8 7.03-2.23 10.1a23.97 23.97 0 0 1-11.68 11.67A23.8 23.8 0 0 1 26.5 50.5c-13.25 0-24-10.75-24-24 0-3.61.8-7.02 2.23-10.09 2.38-5.15 6.53-9.3 11.67-11.68C19.47 3.3 22.89 2.5 26.5 2.5c13.26 0 24 10.74 24 24" opacity="1" data-original="#2d2c2c" class=""></path><g opacity=".3"><path fill="#ffffff" d="M44.385 21.713a18.6 18.6 0 0 0-6.72-9.974.75.75 0 0 1 .907-1.196 20.1 20.1 0 0 1 7.262 10.784.75.75 0 1 1-1.45.386M34.95 10.028a18 18 0 0 0-1.786-.802.75.75 0 0 1-.429-.97.746.746 0 0 1 .97-.429c.658.254 1.309.546 1.93.867a.75.75 0 1 1-.685 1.334" opacity="1" data-original="#ffffff" class=""></path></g><g opacity=".3"><path fill="#ffffff" d="M7.89 30.73a.75.75 0 0 1 .725.556 18.6 18.6 0 0 0 6.719 9.975.75.75 0 0 1-.906 1.195 20.1 20.1 0 0 1-7.262-10.783.75.75 0 0 1 .725-.944M18.05 42.972c.576.297 1.176.566 1.786.801a.75.75 0 0 1 .429.97.746.746 0 0 1-.97.429 20 20 0 0 1-1.93-.866.75.75 0 1 1 .685-1.334" opacity="1" data-original="#ffffff" class=""></path></g><path fill="#474646" d="m47 35.76-.09.21a22.45 22.45 0 0 1-10.95 10.94l-.21.09-11.91-17.85 5.31-5.3z" opacity="1" data-original="#474646"></path><path fill="#474646" d="m29.15 23.85-5.31 5.3L6 17.26v-.01l.09-.21A22.45 22.45 0 0 1 17.03 6.09l.21-.09h.01z" opacity="1" data-original="#474646"></path><circle cx="26.496" cy="26.499" r="8.061" fill="#dabc4b" opacity="1" data-original="#f9b938" class=""></circle><g opacity=".5"><path fill="#ffffff" d="M24.474 21.92a.601.601 0 0 1-.22-1.16q.412-.161.85-.264a.61.61 0 0 1 .72.45.6.6 0 0 1-.451.72q-.35.082-.68.211a.6.6 0 0 1-.22.042M21.054 25.954a.6.6 0 0 1-.588-.725 6.13 6.13 0 0 1 1.928-3.323.599.599 0 1 1 .8.894 4.94 4.94 0 0 0-1.554 2.678.6.6 0 0 1-.586.476" opacity="1" data-original="#ffffff" class=""></path></g><path fill="#c6ab46" d="M34.56 26.5c0 4.45-3.611 8.06-8.06 8.06a8.04 8.04 0 0 1-6.415-3.186 8 8 0 0 0 4.832 1.603 8.063 8.063 0 0 0 8.06-8.06c0-1.831-.6-3.507-1.625-4.852A8.04 8.04 0 0 1 34.56 26.5" opacity="1" data-original="#ecb021" class=""></path><circle cx="26.496" cy="26.502" r="3.273" fill="#ffffff" opacity="1" data-original="#ffffff" class=""></circle><path fill="#e4e3ff" d="M29.25 24.73a3.25 3.25 0 0 0-1.77-.52 3.273 3.273 0 0 0-2.76 5.04c-.9-.58-1.5-1.59-1.5-2.75 0-1.81 1.47-3.27 3.28-3.27 1.15 0 2.17.6 2.75 1.5" opacity="1" data-original="#e4e3ff"></path><path fill="#1b1b1b" d="M50.5 26.5c0 3.61-.8 7.03-2.23 10.1a23.97 23.97 0 0 1-11.68 11.67A23.8 23.8 0 0 1 26.5 50.5c-7.15 0-13.57-3.13-17.97-8.09a23.9 23.9 0 0 0 15.91 6.03c3.61 0 7.02-.8 10.09-2.23.17-.08.35-.16.52-.25.05-.02.09-.05.14-.07.25-.12.5-.25.74-.39.29-.15.57-.32.85-.49.29-.16.56-.34.84-.52.34-.22.67-.45 1-.69.2-.15.4-.3.59-.45a24.11 24.11 0 0 0 4.28-4.31c.32-.42.63-.85.93-1.3.2-.31.4-.63.59-.95.16-.26.31-.53.46-.8.02-.04.04-.08.07-.12.14-.27.28-.54.41-.81.1-.17.18-.34.26-.52 3.897-8.365 2.723-18.651-3.8-26.01 4.96 4.4 8.09 10.82 8.09 17.97" opacity="1" data-original="#1b1b1b"></path></g></svg>